<?xml version="1.0" encoding="iso-8859-1"?>
<!-- Generator: Adobe Illustrator 19.0.0, SVG Export Plug-In . SVG Version: 6.00 Build 0)  -->
<svg version="1.1" id="Layer_1" xmlns="http://www.w3.org/2000/svg" xmlns:xlink="http://www.w3.org/1999/xlink" x="0px" y="0px"
	 viewBox="0 0 512 512" style="enable-background:new 0 0 512 512;" xml:space="preserve">
<path style="fill:#CC7954;" d="M139.948,372.053c-27.682-27.685-74.124-26.13-103.726,3.473
	C0.643,411.104-8.904,462.281,8.372,503.625c41.343,17.279,92.522,7.731,128.101-27.849
	C166.075,446.174,167.63,399.736,139.948,372.053z"/>
<path style="fill:#B25F42;" d="M158.772,408.983c-9.353-56.748-79.581-76.429-122.55-33.457
	C0.643,411.104-8.904,462.281,8.372,503.625c12.797,5.348,26.537,8.12,40.464,8.351C41.251,445.247,101.787,380.203,158.772,408.983
	z"/>
<g>
	<polygon style="fill:#989898;" points="235.983,202.963 178.01,253.828 258.169,333.99 309.035,276.018 	"/>
	<path style="fill:#989898;" d="M151.305,282.104l-48.203,71.256c10.467,10.47,44.958,44.963,55.535,55.54l71.259-48.203
		L151.305,282.104z"/>
</g>
<polygon style="fill:#75716F;" points="167.179,297.977 151.305,282.104 103.102,353.359 118.974,369.236 "/>
<path style="fill:#6EDCF9;" d="M503.919,8.081c-21.007-21.006-52.105,5.511-52.757,6.083L232.429,206.082l73.488,73.49
	L497.836,60.839C498.406,60.184,524.925,29.088,503.919,8.081z"/>
<polygon style="fill:#75716F;" points="195.161,268.921 252.037,219.018 235.983,202.963 178.01,253.828 258.169,333.99 
	259.131,332.894 "/>
<path style="fill:#3FB5D1;" d="M253.134,218.056L253.134,218.056l215.18-188.799c0.541-0.474,22.03-18.799,41.332-13.045
	c-1.282-2.812-3.143-5.548-5.726-8.131c-21.007-21.006-52.105,5.511-52.757,6.083L232.429,206.082l16.054,16.054L253.134,218.056z"
	/>
<path style="fill:#F2F2F2;" d="M258.477,332.113l-78.591-78.59c-3.65-3.651-8.504-5.662-13.666-5.662s-10.016,2.011-13.666,5.662
	l-2.34,2.34c-3.651,3.651-5.662,8.505-5.662,13.667s2.011,10.015,5.662,13.665l78.59,78.594c7.554,7.552,19.778,7.554,27.333,0
	c2.635-2.639,8.002-7.136,8.002-16.009C264.139,340.618,262.128,335.764,258.477,332.113z"/>
<path style="fill:#D3D2D1;" d="M241.994,347.633l-78.59-78.594c-3.651-3.65-5.662-8.503-5.662-13.665
	c0-2.069,0.337-4.083,0.959-5.996c-2.268,0.958-4.354,2.35-6.148,4.144l-2.34,2.34c-3.651,3.651-5.662,8.505-5.662,13.667
	s2.011,10.015,5.662,13.665l78.59,78.594c3.651,3.65,8.505,5.66,13.667,5.661c8.679-0.002,13.099-5.093,16.007-8.004
	c2.188-2.187,3.771-4.811,4.702-7.669C256.224,354.711,247.791,353.428,241.994,347.633z"/>
<g>
</g>
<g>
</g>
<g>
</g>
<g>
</g>
<g>
</g>
<g>
</g>
<g>
</g>
<g>
</g>
<g>
</g>
<g>
</g>
<g>
</g>
<g>
</g>
<g>
</g>
<g>
</g>
<g>
</g>
</svg>
